<?xml version="1.0" encoding="UTF-8" standalone="no"?>
<!-- Created with Inkscape (http://www.inkscape.org/) -->

<svg
   xmlns:dc="http://purl.org/dc/elements/1.1/"
   xmlns:cc="http://creativecommons.org/ns#"
   xmlns:rdf="http://www.w3.org/1999/02/22-rdf-syntax-ns#"
   xmlns:svg="http://www.w3.org/2000/svg"
   xmlns="http://www.w3.org/2000/svg"
   xmlns:sodipodi="http://sodipodi.sourceforge.net/DTD/sodipodi-0.dtd"
   xmlns:inkscape="http://www.inkscape.org/namespaces/inkscape"
   width="61.741833mm"
   height="61.628693mm"
   viewBox="0 0 61.741833 61.628693"
   version="1.1"
   id="svg1518"
   inkscape:version="0.92.4 (unknown)"
   sodipodi:docname="bch-color.svg">
  <defs
     id="defs1512" />
  <sodipodi:namedview
     id="base"
     pagecolor="#ffffff"
     bordercolor="#666666"
     borderopacity="1.0"
     inkscape:pageopacity="0.0"
     inkscape:pageshadow="2"
     inkscape:zoom="0.35"
     inkscape:cx="-201.89395"
     inkscape:cy="-237.82205"
     inkscape:document-units="mm"
     inkscape:current-layer="layer1"
     showgrid="false"
     fit-margin-top="0"
     fit-margin-left="0"
     fit-margin-right="0"
     fit-margin-bottom="0"
     inkscape:window-width="1920"
     inkscape:window-height="1056"
     inkscape:window-x="0"
     inkscape:window-y="24"
     inkscape:window-maximized="1" />
  <metadata
     id="metadata1515">
    <rdf:RDF>
      <cc:Work
         rdf:about="">
        <dc:format>image/svg+xml</dc:format>
        <dc:type
           rdf:resource="http://purl.org/dc/dcmitype/StillImage" />
        <dc:title></dc:title>
      </cc:Work>
    </rdf:RDF>
  </metadata>
  <g
     inkscape:label="Layer 1"
     inkscape:groupmode="layer"
     id="layer1"
     transform="translate(-30.361226,-24.280892)">
    <g
       id="g6398"
       transform="matrix(0.07824554,0,0,0.07824554,30.4034,24.266495)"
       inkscape:export-xdpi="41.15226"
       inkscape:export-ydpi="41.15226">
      <g
         id="g6389">
        <path
           class="cls-1"
           d="M 286.969,0.184 H -0.539 V 289.7 C 36.53,149.1 146.755,38.2 286.969,0.184 Z"
           id="path5824"
           inkscape:connector-curvature="0"
           style="fill:#f7941d" />
        <path
           class="cls-1"
           d="M 788.539,289.7 V 0.184 H 501.031 C 641.244,38.2 751.47,149.1 788.539,289.7 Z"
           id="path5826"
           inkscape:connector-curvature="0"
           style="fill:#f7941d" />
        <path
           class="cls-1"
           d="M 501.031,787.816 H 788.539 V 498.3 C 751.47,638.9 641.244,749.8 501.031,787.816 Z"
           id="path5828"
           inkscape:connector-curvature="0"
           style="fill:#f7941d" />
        <path
           class="cls-1"
           d="M -0.539,498.3 V 787.816 H 286.969 C 146.755,749.8 36.53,638.9 -0.539,498.3 Z"
           id="path5830"
           inkscape:connector-curvature="0"
           style="fill:#f7941d" />
        <circle
           class="cls-1"
           cx="394"
           cy="394"
           r="335"
           id="circle5832"
           style="fill:#f7941d" />
      </g>
      <path
         id="path5834"
         d="m 551.124,407.914 -0.187,-0.346 -0.031,-0.058 c -0.113,-0.348 -0.2,-0.713 -0.326,-1.089 l -0.016,-0.03 -0.016,-0.029 -0.016,-0.029 -0.016,-0.029 -0.016,-0.029 -0.016,-0.029 -0.032,-0.058 A 68.435,68.435 0 0 0 528.08,372.71 l -0.015,-0.029 c -0.315,-0.24 -0.646,-0.51 -0.962,-0.747 l -0.435,-0.324 -0.315,-0.239 -0.135,-0.114 -0.3,-0.211 -0.135,-0.113 -0.3,-0.211 -0.135,-0.113 -0.315,-0.239 -0.165,-0.1 -0.315,-0.239 -0.165,-0.1 -0.34,-0.224 -0.165,-0.1 -0.2,-0.3 -0.18,-0.127 -0.34,-0.224 -0.179,-0.127 -0.341,-0.225 -0.179,-0.126 -0.34,-0.225 -0.18,-0.127 -0.36,-0.255 -0.179,-0.127 -0.388,-0.238 -0.18,-0.126 -0.387,-0.239 -0.18,-0.126 -0.388,-0.239 -0.179,-0.126 -0.388,-0.239 -0.209,-0.11 -0.388,-0.238 -0.208,-0.111 -0.418,-0.222 -0.208,-0.11 -0.433,-0.251 -0.208,-0.11 -0.433,-0.25 -0.209,-0.111 -0.433,-0.25 -0.224,-0.139 -0.433,-0.251 -0.225,-0.139 -0.461,-0.236 -0.224,-0.139 -0.462,-0.236 -0.312,-0.17 -0.016,-0.029 c -0.224,-0.139 -0.461,-0.236 -0.686,-0.376 a 95.508,95.508 0 0 0 -30.588,-9.665 85.552,85.552 0 0 0 8.195,-10.293 l 0.393,-0.584 0.029,-0.016 0.182,-0.284 0.238,-0.388 0.127,-0.18 0.238,-0.387 0.126,-0.18 0.239,-0.388 0.126,-0.179 0.239,-0.388 0.126,-0.18 0.238,-0.388 0.126,-0.179 0.209,-0.374 0.127,-0.179 0.208,-0.374 0.1,-0.165 0.208,-0.373 0.1,-0.165 0.208,-0.373 0.1,-0.165 0.18,-0.358 0.1,-0.165 0.179,-0.357 0.1,-0.165 0.179,-0.357 0.1,-0.165 0.195,-0.329 0.1,-0.165 0.2,-0.328 0.1,-0.165 0.171,-0.312 0.1,-0.165 0.17,-0.313 0.069,-0.148 0.171,-0.313 0.068,-0.149 0.171,-0.312 0.068,-0.149 0.171,-0.312 0.069,-0.149 0.137,-0.3 0.069,-0.149 0.138,-0.3 0.069,-0.149 0.138,-0.3 0.069,-0.148 0.151,-0.341 0.207,-0.445 c 0.151,-0.341 0.273,-0.668 0.425,-1.01 l 0.029,-0.016 a 60.785,60.785 0 0 0 3.088,-35.684 l -0.016,-0.029 -0.032,-0.058 -0.016,-0.029 -0.015,-0.029 -0.016,-0.029 -0.016,-0.029 -0.017,-0.029 -0.015,-0.028 c -0.069,-0.336 -0.138,-0.671 -0.235,-0.992 v -0.073 l -0.016,-0.029 -0.016,-0.029 -0.016,-0.028 0.016,0.028 -0.14,-0.259 c -0.1,-0.466 -0.2,-0.936 -0.35,-1.411 -0.1,-0.466 -0.248,-0.946 -0.379,-1.4 l -0.171,-0.317 -0.031,-0.058 c -0.1,-0.319 -0.195,-0.64 -0.293,-0.959 l -0.017,-0.029 -0.016,-0.029 -0.016,-0.029 -0.015,-0.029 -0.016,-0.028 -0.017,-0.029 -0.015,-0.029 a 60.8,60.8 0 0 0 -19.9,-29.784 l -0.017,-0.03 c -0.27,-0.227 -0.57,-0.438 -0.841,-0.663 l -0.374,-0.283 -0.3,-0.22 -0.135,-0.113 -0.256,-0.2 -0.135,-0.114 -0.255,-0.2 -0.135,-0.113 -0.284,-0.182 -0.136,-0.113 -0.3,-0.211 -0.135,-0.113 -0.3,-0.211 -0.136,-0.113 -0.3,-0.211 -0.165,-0.1 -0.3,-0.211 -0.165,-0.1 -0.3,-0.211 -0.165,-0.1 -0.328,-0.195 -0.165,-0.1 -0.328,-0.195 -0.165,-0.1 -0.329,-0.195 -0.165,-0.1 -0.328,-0.2 -0.165,-0.1 -0.34,-0.225 -0.165,-0.1 -0.345,-0.224 -0.165,-0.1 -0.373,-0.209 -0.165,-0.1 -0.373,-0.209 -0.18,-0.127 -0.373,-0.208 -0.179,-0.127 -0.373,-0.208 -0.18,-0.127 -0.387,-0.238 -0.209,-0.111 -0.388,-0.238 -0.208,-0.11 -0.418,-0.223 -0.208,-0.11 -0.418,-0.222 -0.3,-0.138 -0.016,-0.029 -0.626,-0.332 c -18.294,-9.508 -41.536,-12.371 -64.92,-6.372 l -6.083,1.562 -15.415,-59.862 -35.652,9.14 15.3,59.681 -28.521,7.316 -15.348,-59.486 -35.652,9.138 15.335,59.676 -73.529,18.924 9.783,38.025 29.627,-7.609 a 18.335,18.335 0 0 1 22.332,13.178 l 0.008,0.034 v 0 l 41.128,160.01 a 12.249,12.249 0 0 1 -8.8,14.9 l -25.96,6.678 1.525,45.223 73.435,-18.874 15.537,59.568 35.636,-9.169 -15.35,-59.706 28.521,-7.316 15.35,59.7 35.636,-9.169 -15.4,-59.938 c 6.04,-1.576 11.233,-2.921 14.827,-3.85 26.353,-6.779 47.663,-22.232 60.558,-41.494 l 0.436,-0.643 0.029,-0.016 0.211,-0.3 0.28,-0.448 0.139,-0.225 0.28,-0.448 0.14,-0.225 0.25,-0.433 0.139,-0.224 0.25,-0.433 0.111,-0.209 0.25,-0.433 0.111,-0.208 0.25,-0.433 0.11,-0.209 0.222,-0.417 0.111,-0.209 0.222,-0.417 0.11,-0.209 0.239,-0.388 0.11,-0.208 0.238,-0.388 0.111,-0.208 0.208,-0.374 0.111,-0.208 0.208,-0.373 0.111,-0.208 0.208,-0.373 0.085,-0.193 0.209,-0.373 0.085,-0.193 0.179,-0.357 0.1,-0.165 0.18,-0.357 0.1,-0.165 0.179,-0.358 0.1,-0.165 0.179,-0.357 0.1,-0.165 0.18,-0.357 0.1,-0.165 0.18,-0.358 0.1,-0.165 0.151,-0.34 0.1,-0.165 0.151,-0.34 0.069,-0.149 0.165,-0.386 0.221,-0.491 c 0.165,-0.386 0.344,-0.744 0.479,-1.114 l 0.014,-0.045 a 68.5,68.5 0 0 0 3.482,-40.138 l -0.016,-0.029 -0.016,-0.029 -0.016,-0.029 -0.016,-0.029 -0.016,-0.029 -0.016,-0.029 -0.016,-0.029 -0.016,-0.029 -0.255,-1.092 v -0.073 l -0.015,-0.029 -0.016,-0.029 -0.017,-0.029 -0.016,-0.029 -0.015,-0.029 -0.016,-0.029 -0.016,-0.029 -0.016,-0.029 -0.016,-0.028 -0.016,-0.029 -0.016,-0.029 -0.015,-0.029 -0.016,-0.029 -0.063,-0.115 c -0.132,-0.523 -0.237,-1.062 -0.4,-1.572 -0.025,-0.318 -0.101,-0.874 -0.133,-1.489 z M 341.641,300.876 c 6.083,-1.561 31.233,-7.878 39.526,-10.037 13.185,-3.375 26.172,-2.065 36.323,2.82 l 0.341,0.151 v 0 l 0.148,0.069 0.209,0.11 0.1,0.056 0.208,0.11 0.1,0.056 0.208,0.11 0.1,0.056 0.209,0.11 0.1,0.055 0.209,0.111 0.1,0.055 0.209,0.111 0.1,0.055 0.208,0.111 0.1,0.055 0.208,0.111 0.1,0.055 0.208,0.111 0.1,0.055 0.18,0.127 0.1,0.055 0.179,0.127 0.1,0.055 0.179,0.127 0.1,0.055 0.165,0.1 0.1,0.055 0.165,0.1 0.1,0.055 0.165,0.1 0.1,0.055 0.165,0.1 0.1,0.055 0.165,0.1 0.076,0.072 0.165,0.1 0.06,0.041 0.165,0.1 0.059,0.042 0.165,0.1 0.06,0.041 0.165,0.1 0.059,0.042 0.136,0.113 0.059,0.042 0.165,0.1 0.225,0.14 c 0.165,0.1 0.315,0.241 0.48,0.34 v 0 a 30.749,30.749 0 0 1 10.9,15.612 v 0 l 0.046,0.085 c 0.048,0.16 0.113,0.348 0.161,0.51 l 0.016,0.03 0.094,0.17 c 0.066,0.262 0.146,0.48 0.214,0.741 a 4.436,4.436 0 0 1 0.142,0.817 l 0.093,0.17 0.016,0.029 a 2.557,2.557 0 0 0 0.133,0.523 l 0.046,0.085 v 0 a 30.857,30.857 0 0 1 -2.029,18.931 v 0 l -0.234,0.535 -0.124,0.255 -0.1,0.165 -0.027,0.089 -0.069,0.149 -0.027,0.089 -0.1,0.165 -0.027,0.086 -0.1,0.165 -0.027,0.089 -0.1,0.165 -0.027,0.085 -0.1,0.165 -0.027,0.089 -0.1,0.165 -0.028,0.09 -0.1,0.165 -0.056,0.1 -0.1,0.165 -0.056,0.1 -0.1,0.165 -0.055,0.1 -0.1,0.165 -0.055,0.1 -0.127,0.179 -0.055,0.1 -0.127,0.18 -0.055,0.1 -0.127,0.179 -0.055,0.1 -0.127,0.179 -0.055,0.1 -0.127,0.18 -0.055,0.1 -0.127,0.18 -0.055,0.1 -0.127,0.179 -0.055,0.1 -0.127,0.179 -0.055,0.1 -0.156,0.195 -0.055,0.1 -0.156,0.195 -0.055,0.1 -0.156,0.195 -0.055,0.1 -0.156,0.195 -0.113,0.135 v 0 l -0.211,0.3 c -6.557,9.188 -17.3,16.609 -30.485,19.983 -8.309,2.127 -33.393,8.706 -39.471,10.268 z M 481,423.55 l 0.094,0.17 0.016,0.029 c 0.035,0.2 0.085,0.364 0.12,0.568 v 0 l 0.016,0.03 v 0 l 0.016,0.029 0.017,0.029 0.016,0.029 v 0 a 31.694,31.694 0 0 1 -2.867,20.675 v 0 l -0.319,0.581 -0.153,0.269 -0.111,0.208 -0.055,0.1 -0.1,0.165 -0.055,0.1 -0.1,0.165 -0.055,0.1 -0.127,0.179 -0.055,0.1 -0.127,0.179 -0.055,0.1 -0.127,0.18 -0.055,0.1 -0.127,0.179 -0.055,0.1 -0.127,0.179 -0.055,0.1 -0.127,0.18 -0.055,0.1 -0.127,0.18 -0.055,0.1 -0.127,0.179 -0.055,0.1 -0.127,0.179 -0.055,0.1 -0.156,0.195 -0.055,0.1 -0.156,0.195 -0.055,0.1 -0.14,0.225 -0.055,0.1 -0.141,0.224 -0.055,0.1 -0.139,0.225 -0.086,0.12 -0.139,0.224 -0.085,0.12 -0.17,0.239 -0.085,0.12 -0.17,0.239 -0.086,0.12 -0.17,0.239 -0.085,0.12 -0.17,0.239 -0.085,0.12 -0.17,0.239 -0.142,0.152 v 0 l -0.269,0.33 c -7.964,10.169 -20.807,18.533 -36.409,22.537 -9.836,2.54 -39.562,10.314 -46.794,12.16 l -20.237,-78.739 c 7.217,-1.872 37.025,-9.357 46.861,-11.9 15.6,-4 30.914,-2.869 42.754,2.186 l 0.386,0.165 v 0 l 0.193,0.085 0.283,0.108 0.132,0.039 0.256,0.124 0.132,0.039 0.256,0.125 0.132,0.039 0.255,0.124 0.1,0.055 0.255,0.124 0.1,0.056 0.255,0.124 0.1,0.055 0.255,0.124 0.1,0.056 0.209,0.11 0.1,0.056 0.209,0.11 0.1,0.056 0.208,0.11 0.1,0.055 0.208,0.111 0.1,0.055 0.208,0.111 0.1,0.055 0.209,0.111 0.1,0.055 0.209,0.111 0.1,0.055 0.208,0.111 0.1,0.055 0.208,0.11 0.1,0.056 0.179,0.126 0.1,0.056 0.18,0.127 0.1,0.055 0.18,0.127 0.1,0.055 0.179,0.127 0.1,0.055 0.18,0.127 0.1,0.055 0.165,0.1 0.1,0.055 0.18,0.127 0.239,0.17 c 0.179,0.127 0.388,0.238 0.569,0.364 v 0 a 31.789,31.789 0 0 1 12.547,16.799 v 0 l 0.062,0.115 c 0.064,0.188 0.113,0.349 0.177,0.537 l 0.016,0.028 0.093,0.171 c 0.067,0.262 0.133,0.523 0.216,0.815 0.147,0.063 0.17,0.385 0.125,0.782 z"
         class="cls-2"
         inkscape:connector-curvature="0"
         style="fill:#ffffff" />
    </g>
  </g>
</svg>
