<?xml version="1.0" encoding="utf-8"?>
<!-- Generator: Adobe Illustrator 28.0.0, SVG Export Plug-In . SVG Version: 6.00 Build 0)  -->
<svg version="1.1" id="Layer_1" xmlns="http://www.w3.org/2000/svg" xmlns:xlink="http://www.w3.org/1999/xlink" x="0px" y="0px"
	 viewBox="0 0 235 235" style="enable-background:new 0 0 235 235;" xml:space="preserve">
<style type="text/css">
	.st0{opacity:0.5;}
	.st1{fill:#D2ECED;}
	.st2{fill:#FFFFFF;}
</style>
<g class="st0">
	<circle class="st1" cx="117.5" cy="117.5" r="117.5"/>
</g>
<path class="st2" d="M192.1,79.8c-6.5-4.5-13.4-9.3-20.1-14.1c-0.1-0.1-0.3-0.2-0.5-0.3c-0.7-0.6-1.6-1.2-2.6-1.5h-0.1
	c-18.1-4.4-36.4-8.8-54.2-13.2c-16.1-3.9-32.2-7.8-48.3-11.8c-0.4-0.1-0.8-0.2-1.3-0.3c-1.5-0.4-3.1-0.9-4.9-0.6
	c-0.5,0.1-1,0.3-1.4,0.5l-0.4,0.4c-0.7,0.7-1.1,1.5-1.3,2l-0.1,0.3v1.7l0.1,0.3c10.2,28.5,20.6,57.5,30.7,85.5
	c7.8,21.6,15.8,43.9,23.7,65.9c0.5,1.5,1.9,2.5,3.6,2.6h0.4c1.6,0,3-0.8,3.7-2.1l29.6-43.1c7.2-10.5,14.4-21,21.6-31.5
	c2.9-4.3,5.9-8.6,8.8-12.9c4.9-7.1,9.9-14.4,14.8-21.5l0.3-0.4v-0.4C194.2,83.9,194.3,81.2,192.1,79.8 M157.5,95.5
	c-6.9,3.6-14,7.4-21.2,11c4.1-4.4,8.3-8.9,12.5-13.4c5.2-5.6,10.6-11.4,15.9-17.1l0.1-0.1c0.4-0.6,1-1.2,1.6-1.8
	c0.4-0.4,0.9-0.8,1.3-1.3c2.8,1.9,5.6,3.8,8.2,5.7c1.9,1.4,3.9,2.8,5.9,4.1C173.6,87,165.4,91.3,157.5,95.5 M139.6,93.7
	c-5.3,5.8-10.9,11.7-16.3,17.6c-10.6-12.9-21.5-26-32-38.7c-4.8-5.7-9.6-11.5-14.4-17.3l0,0c-1.1-1.2-2.1-2.6-3.2-3.8
	c-0.7-0.9-1.4-1.7-2.1-2.5c4.3,1.1,8.7,2.2,13,3.2c3.8,0.9,7.7,1.8,11.5,2.8c21.6,5.3,43.3,10.5,65,15.8
	C153.9,78.4,146.6,86.2,139.6,93.7 M120.9,166.5c0.4-3.9,0.9-7.9,1.2-11.9c0.3-3.2,0.7-6.4,1-9.5c0.5-5,1.1-10.1,1.5-15.2l0.1-0.9
	c0.4-3.2,0.7-6.5,1-9.9c0.4-0.2,0.9-0.4,1.3-0.6c0.6-0.3,1.1-0.5,1.7-0.8c8.6-4.5,17.2-9,25.9-13.5c8.6-4.5,17.5-9.1,26.2-13.7
	c-8,11.6-16,23.2-23.8,34.6c-6.7,9.7-13.5,19.8-20.4,29.7c-2.7,4-5.5,8-8.1,11.9c-3,4.3-6,8.8-9,13.2
	C119.9,175.4,120.4,170.9,120.9,166.5 M68.8,57.7c-0.5-1.3-1-2.7-1.5-4C77.5,65.9,87.6,78.1,97.5,90c5.1,6.2,10.2,12.3,15.3,18.5
	c1,1.2,2,2.4,3,3.6c1.3,1.5,2.5,3.1,3.9,4.7c-0.4,3.8-0.8,7.7-1.2,11.5c-0.3,2.6-0.5,5.2-0.8,7.9l0,0c-0.1,1.7-0.3,3.4-0.5,5
	c-0.3,2.3-0.9,7.4-0.9,7.4v0.3c-0.7,7.5-1.5,15.2-2.3,22.5c-0.3,3.1-0.6,6.2-1,9.3c-0.2-0.6-0.4-1.1-0.6-1.6
	c-0.6-1.5-1.1-3.1-1.6-4.6l-4-11.1C94.1,128.1,81.5,93,68.8,57.7"/>
</svg>
