<?xml version="1.0" encoding="UTF-8" standalone="no"?>
<!-- Created with Inkscape (http://www.inkscape.org/) -->

<svg
   xmlns:dc="http://purl.org/dc/elements/1.1/"
   xmlns:cc="http://creativecommons.org/ns#"
   xmlns:rdf="http://www.w3.org/1999/02/22-rdf-syntax-ns#"
   xmlns:svg="http://www.w3.org/2000/svg"
   xmlns="http://www.w3.org/2000/svg"
   xmlns:sodipodi="http://sodipodi.sourceforge.net/DTD/sodipodi-0.dtd"
   xmlns:inkscape="http://www.inkscape.org/namespaces/inkscape"
   width="60.470661mm"
   height="60.470661mm"
   viewBox="0 0 60.470661 60.470661"
   version="1.1"
   id="svg2718"
   inkscape:version="0.92.4 (unknown)"
   sodipodi:docname="zec-color.svg">
  <defs
     id="defs2712" />
  <sodipodi:namedview
     id="base"
     pagecolor="#ffffff"
     bordercolor="#666666"
     borderopacity="1.0"
     inkscape:pageopacity="0.0"
     inkscape:pageshadow="2"
     inkscape:zoom="0.35"
     inkscape:cx="-212.86759"
     inkscape:cy="199.98955"
     inkscape:document-units="mm"
     inkscape:current-layer="layer1"
     showgrid="false"
     fit-margin-top="0"
     fit-margin-left="0"
     fit-margin-right="0"
     fit-margin-bottom="0"
     inkscape:window-width="1920"
     inkscape:window-height="1056"
     inkscape:window-x="0"
     inkscape:window-y="24"
     inkscape:window-maximized="1" />
  <metadata
     id="metadata2715">
    <rdf:RDF>
      <cc:Work
         rdf:about="">
        <dc:format>image/svg+xml</dc:format>
        <dc:type
           rdf:resource="http://purl.org/dc/dcmitype/StillImage" />
        <dc:title></dc:title>
      </cc:Work>
    </rdf:RDF>
  </metadata>
  <g
     inkscape:label="Layer 1"
     inkscape:groupmode="layer"
     id="layer1"
     transform="translate(-33.264669,-141.27657)">
    <g
       id="g5157"
       transform="matrix(0.13414375,0,0,0.13414375,30.581794,138.5937)"
       inkscape:export-xdpi="42.003841"
       inkscape:export-ydpi="42.003841">
      <path
         id="path4541"
         d="M 245.4,20 C 121.11,20 20,121.11 20,245.39 c 0,124.28 101.11,225.4 225.4,225.4 124.29,0 225.39,-101.11 225.39,-225.4 C 470.79,121.1 369.68,20 245.4,20 Z m 0,413.58 c -103.77,0 -188.19,-84.42 -188.19,-188.19 0,-103.77 84.42,-188.18 188.19,-188.18 103.77,0 188.18,84.42 188.18,188.18 0,103.76 -84.42,188.19 -188.18,188.19 z"
         class="cls-1"
         inkscape:connector-curvature="0"
         style="fill:#231f20" />
      <g
         id="g5151">
        <circle
           style="fill:#f4b728"
           class="cls-2"
           cx="245.39999"
           cy="245.39"
           r="177.64999"
           id="circle4543" />
        <polygon
           style="fill:#231f20"
           class="cls-1"
           points="264.28,140.75 264.28,103.02 226.51,103.02 226.51,140.75 165.02,140.75 165.02,186.29 260.35,186.29 182.39,293.58 165.02,315.66 165.02,350.04 226.51,350.04 226.51,387.65 231.04,387.65 231.04,387.81 259.75,387.81 259.75,387.65 264.28,387.65 264.28,350.04 325.78,350.04 325.78,304.5 230.44,304.5 308.4,197.21 325.78,175.13 325.78,140.75 "
           id="polygon4545" />
      </g>
    </g>
  </g>
</svg>
